<?xml version="1.0" encoding="utf-8"?>
<!-- Generator: Adobe Illustrator 26.3.1, SVG Export Plug-In . SVG Version: 6.00 Build 0)  -->
<svg version="1.1" id="Camada_1" xmlns="http://www.w3.org/2000/svg" xmlns:xlink="http://www.w3.org/1999/xlink" x="0px" y="0px"
	 viewBox="0 0 21 28.2" style="enable-background:new 0 0 21 28.2;" xml:space="preserve">
<style type="text/css">
	.st0{fill:#012A56;}
	.st1{clip-path:url(#SVGID_00000172422597761207438160000005548949089430252438_);fill:#012A56;}
	.st2{fill:none;stroke:#012A56;stroke-width:2;stroke-miterlimit:10;}
</style>
<path class="st0" d="M12,21.2l-0.73-3.72c0.17-0.24,0.28-0.52,0.28-0.83c0-0.8-0.69-1.45-1.55-1.45s-1.55,0.65-1.55,1.45
	c0,0.31,0.1,0.6,0.28,0.84L8,21.2H12z"/>
<g>
	<defs>
		<rect id="SVGID_1_" y="9.2" width="21" height="19"/>
	</defs>
	<clipPath id="SVGID_00000114794266846388703180000017363606798439332481_">
		<use xlink:href="#SVGID_1_"  style="overflow:visible;"/>
	</clipPath>
	<path style="clip-path:url(#SVGID_00000114794266846388703180000017363606798439332481_);fill:#012A56;" d="M2,28.2v-19h-4v19H2z
		 M21,26.2H0v4h21V26.2z M19,9.2v19h4v-19H19z M0,11.2h21v-4H0V11.2z M0,28.2h-2v2h2V28.2z M21,28.2v2h2v-2H21z M21,9.2h2v-2h-2V9.2
		z M0,9.2v-2h-2v2H0z"/>
</g>
<path class="st2" d="M18.6,9.2C18.6,4.6,15,1,10.5,1C6.1,1,2.4,4.6,2.4,9.2"/>
</svg>
