<svg width="282" height="96" viewBox="0 0 282 96" fill="none" xmlns="http://www.w3.org/2000/svg">
<g clip-path="url(#clip0_3_30)">
<path d="M34.9776 0C15.6895 0 0 15.7446 0 35.1005C0 61.8561 32.3874 94.0955 33.7665 95.4534C34.1026 95.7848 34.5401 95.9506 34.9776 95.9506C35.4152 95.9506 35.8527 95.7848 36.1888 95.4534C37.5679 94.0955 69.9553 61.8532 69.9553 35.1005C69.9553 15.7446 54.2629 0 34.9776 0ZM34.9776 56.2299C23.3677 56.2299 13.9192 46.7512 13.9192 35.0976C13.9192 23.4439 23.3648 13.9681 34.9776 13.9681C46.5905 13.9681 56.0361 23.4468 56.0361 35.1005C56.0361 46.7541 46.5905 56.2328 34.9776 56.2328V56.2299Z" fill="white"/>
<path d="M34.9776 19.3966C33.7868 19.3966 32.822 20.3648 32.822 21.5598V22.8072C28.9307 23.6329 26.0362 26.6219 26.0362 30.1866C26.0362 35.3999 29.9361 36.9235 32.822 37.4905V43.9657C31.8513 43.5935 31.0603 42.9829 30.646 42.2153C30.0781 41.1628 28.7685 40.7761 27.7225 41.3431C26.6765 41.913 26.2854 43.2272 26.8533 44.2768C27.9949 46.3906 30.223 47.8997 32.822 48.4492V49.7053C32.822 50.9003 33.7868 51.8715 34.9776 51.8715C36.1685 51.8715 37.1362 50.9032 37.1362 49.7053V48.4579C41.0275 47.6322 43.922 44.6432 43.922 41.0785C43.922 38.3948 42.6761 35.0946 37.1362 33.8211V27.2907C38.1474 27.6774 38.9558 28.3229 39.3585 29.137C39.8888 30.207 41.1839 30.646 42.2502 30.1169C43.3193 29.5848 43.7539 28.288 43.2266 27.2151C42.1198 24.9704 39.8395 23.377 37.1391 22.8101V21.5569C37.1391 20.3619 36.1743 19.3936 34.9805 19.3936L34.9776 19.3966ZM32.822 33.0361C30.7735 32.4691 30.3505 31.6026 30.3505 30.1866C30.3505 28.9567 31.3704 27.8751 32.822 27.311V33.0332V33.0361ZM39.6077 41.0843C39.6077 42.3142 38.5878 43.3958 37.1362 43.9599V38.2959C39.599 39.1042 39.6077 40.3923 39.6077 41.0843Z" fill="white"/>
<path d="M82.136 46.1057V5.39941H89.9011L107.17 34.1264H103.055L119.976 5.39941H127.799V46.1057H119.049L118.933 18.9488H120.672L106.996 41.7443H102.824L88.9739 18.9488H90.8862V46.1057H82.136Z" fill="white"/>
<path d="M151.616 46.5709C148.333 46.5709 145.407 45.8731 142.837 44.4775C140.267 43.0818 138.25 41.1715 136.781 38.7495C135.312 36.3275 134.579 33.5653 134.579 30.4629C134.579 27.3605 135.312 24.5401 136.781 22.1181C138.25 19.696 140.267 17.7945 142.837 16.4192C145.407 15.0439 148.333 14.3548 151.616 14.3548C154.899 14.3548 157.895 15.0439 160.482 16.4192C163.07 17.7945 165.098 19.696 166.567 22.1181C168.036 24.5401 168.769 27.3227 168.769 30.4629C168.769 33.6031 168.036 36.374 166.567 38.7786C165.098 41.1832 163.07 43.0818 160.482 44.4775C157.895 45.8731 154.939 46.5709 151.616 46.5709ZM151.616 39.1275C153.16 39.1275 154.522 38.7873 155.701 38.1098C156.881 37.4324 157.825 36.4321 158.541 35.115C159.257 33.7979 159.613 32.2452 159.613 30.4629C159.613 28.6805 159.257 27.0901 158.541 25.8107C157.825 24.5314 156.881 23.5515 155.701 22.874C154.522 22.1966 153.181 21.8564 151.674 21.8564C150.167 21.8564 148.814 22.1966 147.618 22.874C146.421 23.5515 145.465 24.5314 144.749 25.8107C144.034 27.0901 143.677 28.6398 143.677 30.4629C143.677 32.2859 144.034 33.7979 144.749 35.115C145.465 36.4321 146.421 37.4324 147.618 38.1098C148.814 38.7873 150.147 39.1275 151.616 39.1275Z" fill="white"/>
<path d="M193.745 14.3548C196.216 14.3548 198.43 14.8491 200.38 15.8377C202.33 16.8263 203.865 18.3382 204.987 20.3735C206.108 22.4088 206.667 25.0169 206.667 28.1949V46.1057H197.627V29.5906C197.627 27.0697 197.077 25.2088 195.976 24.008C194.875 22.8072 193.319 22.2053 191.311 22.2053C189.882 22.2053 188.596 22.5164 187.457 23.1357C186.319 23.755 185.429 24.668 184.792 25.8689C184.154 27.0697 183.835 28.6602 183.835 30.6373V46.1057H174.796V14.82H183.43V23.4846L181.807 20.8678C182.929 18.7743 184.531 17.1664 186.617 16.0412C188.703 14.916 191.079 14.3548 193.745 14.3548Z" fill="white"/>
<path d="M230.542 46.5709C226.987 46.5709 223.878 45.8731 221.212 44.4775C218.547 43.0818 216.481 41.1715 215.012 38.7495C213.543 36.3275 212.81 33.5653 212.81 30.4629C212.81 27.3605 213.514 24.5895 214.925 22.1471C216.336 19.7048 218.306 17.7974 220.835 16.4192C223.365 15.0439 226.216 14.3548 229.383 14.3548C232.55 14.3548 235.186 15.0148 237.641 16.332C240.095 17.652 242.036 19.51 243.464 21.9145C244.893 24.3191 245.608 27.2064 245.608 30.5792C245.608 30.9281 245.588 31.3264 245.55 31.7713C245.513 32.2161 245.472 32.6348 245.435 33.0215H220.111V27.7297H240.683L237.148 29.2998C237.186 27.6716 236.879 26.2556 236.221 25.0547C235.563 23.8539 234.656 22.9118 233.497 22.2344C232.338 21.5569 230.985 21.2167 229.441 21.2167C227.896 21.2167 226.535 21.5569 225.355 22.2344C224.176 22.9118 223.261 23.8626 222.603 25.0838C221.945 26.305 221.618 27.7501 221.618 29.4161V30.8118C221.618 32.5563 222.003 34.0683 222.777 35.3476C223.55 36.627 224.611 37.6068 225.964 38.2843C227.317 38.9618 228.94 39.3019 230.832 39.3019C232.454 39.3019 233.894 39.049 235.149 38.546C236.403 38.043 237.554 37.287 238.597 36.278L243.406 41.5117C241.978 43.14 240.182 44.3902 238.017 45.2625C235.853 46.1348 233.361 46.5709 230.542 46.5709Z" fill="white"/>
<path d="M254.996 57.8524C253.411 57.8524 251.829 57.5994 250.244 57.0964C248.659 56.5934 247.347 55.8956 246.304 55.0029L249.607 48.4899C250.302 49.15 251.105 49.653 252.012 50.0019C252.919 50.3508 253.837 50.5252 254.764 50.5252C256.001 50.5252 256.995 50.2258 257.749 49.6239C258.502 49.022 259.189 48.0247 259.806 46.6291L261.428 42.7911L262.124 41.8025L273.366 14.82H282L267.919 48.0247C266.913 50.5834 265.766 52.5693 264.471 53.9853C263.175 55.4013 261.747 56.3986 260.182 56.9801C258.618 57.5616 256.888 57.8524 254.996 57.8524ZM260.327 47.3269L246.478 14.82H255.749L266.586 41.0465L260.327 47.3269Z" fill="white"/>
<path d="M90.5385 95.5348V62.5045H77.5581V54.8285H112.907V62.5045H99.9262V95.5348H90.5385Z" fill="white"/>
<path d="M121.831 59.8877C120.13 59.8877 118.759 59.4021 117.716 58.4339C116.673 57.4657 116.152 56.2619 116.152 54.8285C116.152 53.3951 116.673 52.1913 117.716 51.2231C118.759 50.2549 120.13 49.7693 121.831 49.7693C123.531 49.7693 124.853 50.2258 125.916 51.1359C126.979 52.0459 127.51 53.2206 127.51 54.654C127.51 56.166 126.988 57.4163 125.945 58.4048C124.902 59.3934 123.531 59.8877 121.831 59.8877ZM117.311 95.5348V64.2491H126.351V95.5348H117.311Z" fill="white"/>
<path d="M174.68 63.7839C177.151 63.7839 179.344 64.2782 181.257 65.2667C183.169 66.2553 184.667 67.7673 185.748 69.8026C186.828 71.8379 187.37 74.446 187.37 77.624V95.5348H178.33V79.0197C178.33 76.4988 177.817 74.6379 176.795 73.4371C175.772 72.2363 174.332 71.6344 172.478 71.6344C171.124 71.6344 169.928 71.9339 168.885 72.5357C167.842 73.1376 167.039 74.0273 166.48 75.2107C165.921 76.3941 165.64 77.9351 165.64 79.8338V95.5348H156.6V79.0197C156.6 76.4988 156.087 74.6379 155.064 73.4371C154.041 72.2363 152.564 71.6344 150.631 71.6344C149.318 71.6344 148.139 71.9339 147.096 72.5357C146.053 73.1376 145.242 74.0273 144.662 75.2107C144.083 76.3941 143.793 77.9351 143.793 79.8338V95.5348H134.753V64.2491H143.387V72.7393L141.765 70.2969C142.808 68.1656 144.335 66.5461 146.343 65.4412C148.351 64.3363 150.611 63.7839 153.123 63.7839C155.983 63.7839 158.492 64.5108 160.656 65.9646C162.82 67.4184 164.249 69.6369 164.944 72.623L161.757 71.7507C162.8 69.3461 164.46 67.4184 166.741 65.9646C169.021 64.5108 171.666 63.7839 174.68 63.7839Z" fill="white"/>
<path d="M211.245 96C207.69 96 204.581 95.3022 201.915 93.9065C199.25 92.5109 197.184 90.6006 195.715 88.1786C194.246 85.7566 193.513 82.9943 193.513 79.8919C193.513 76.7895 194.217 74.0186 195.628 71.5762C197.039 69.1338 199.009 67.2265 201.539 65.8483C204.068 64.473 206.919 63.7839 210.086 63.7839C213.253 63.7839 215.89 64.4439 218.344 65.761C220.798 67.0811 222.739 68.939 224.168 71.3436C225.596 73.7482 226.312 76.6354 226.312 80.0083C226.312 80.3572 226.291 80.7555 226.254 81.2004C226.216 81.6452 226.175 82.0639 226.138 82.4506H200.814V77.1588H221.386L217.851 78.7289C217.889 77.1006 217.582 75.6847 216.924 74.4838C216.266 73.283 215.359 72.3409 214.2 71.6635C213.041 70.986 211.688 70.6458 210.144 70.6458C208.6 70.6458 207.238 70.986 206.059 71.6635C204.879 72.3409 203.964 73.2917 203.306 74.5129C202.648 75.7341 202.321 77.1792 202.321 78.8452V80.2409C202.321 81.9854 202.706 83.4974 203.48 84.7767C204.254 86.056 205.314 87.0359 206.667 87.7134C208.02 88.3908 209.643 88.731 211.535 88.731C213.157 88.731 214.597 88.4781 215.852 87.9751C217.106 87.472 218.257 86.7161 219.3 85.7071L224.11 90.9408C222.681 92.569 220.885 93.8193 218.72 94.6916C216.556 95.5639 214.064 96 211.245 96Z" fill="white"/>
</g>
<defs>
<clipPath id="clip0_3_30">
<rect width="282" height="96" fill="white"/>
</clipPath>
</defs>
</svg>
